<?xml version="1.0" standalone="no"?>
<!DOCTYPE svg PUBLIC "-//W3C//DTD SVG 20010904//EN"
 "http://www.w3.org/TR/2001/REC-SVG-20010904/DTD/svg10.dtd">
<svg version="1.0" xmlns="http://www.w3.org/2000/svg"
 width="300.000000pt" height="169.000000pt" viewBox="0 0 300.000000 169.000000"
 preserveAspectRatio="xMidYMid meet">
<metadata>
Created by potrace 1.10, written by Peter Selinger 2001-2011
</metadata>
<g transform="translate(0.000000,169.000000) scale(0.100000,-0.100000)"
fill="#000000" stroke="none">
<path d="M1767 1459 c-70 -17 -180 -59 -174 -65 2 -2 34 7 73 21 143 49 301
52 364 7 127 -92 34 -323 -216 -535 -47 -39 -80 -73 -74 -75 28 -10 225 176
289 273 67 100 97 214 72 278 -13 34 1 35 23 2 21 -32 20 -108 -2 -177 -29
-86 -124 -220 -235 -329 -55 -55 -98 -101 -95 -104 8 -8 150 117 199 176 130
154 190 291 174 396 -9 60 -60 116 -125 138 -61 20 -181 18 -273 -6z"/>
<path d="M1236 1308 c-11 -15 -16 -45 -16 -91 0 -59 3 -71 25 -92 21 -21 33
-25 88 -25 50 0 70 5 91 21 24 19 26 26 26 98 0 103 -8 111 -118 111 -72 0
-83 -2 -96 -22z m174 -27 c16 -32 13 -116 -6 -132 -20 -16 -119 -18 -135 -2
-6 6 -13 36 -15 66 -5 74 8 87 86 87 48 0 61 -4 70 -19z"/>
<path d="M1788 1318 c-9 -8 -19 -37 -22 -67 -16 -127 -107 -218 -231 -229 -75
-7 -85 -20 -85 -117 0 -92 13 -115 67 -115 16 0 50 -6 74 -13 42 -13 46 -12
85 13 37 23 40 28 32 50 -5 14 -8 51 -6 82 3 46 11 65 35 95 39 49 104 82 172
88 77 7 81 13 81 111 0 108 -6 114 -109 114 -47 0 -83 -5 -93 -12z m156 -31
c13 -9 19 -28 20 -61 3 -75 -6 -82 -152 -112 -37 -7 -109 -81 -128 -130 -13
-34 -15 -60 -10 -109 6 -61 5 -66 -15 -73 -28 -11 -158 23 -175 45 -15 20 -18
37 -5 29 4 -3 7 9 4 27 -8 68 20 97 92 97 19 0 35 5 35 10 0 6 8 10 19 10 59
0 161 135 161 214 0 25 6 39 22 50 27 19 107 21 132 3z"/>
<path d="M1047 968 c-156 -220 -165 -387 -25 -459 55 -28 74 -24 103 21 14 22
25 41 25 43 0 3 -18 7 -40 10 -90 12 -139 86 -126 191 6 55 51 158 92 211 15
20 24 38 21 41 -3 3 -25 -23 -50 -58z m-49 -349 c13 -15 41 -36 63 -46 50 -22
50 -49 0 -46 -50 2 -101 56 -107 114 -4 38 -3 42 8 25 7 -10 23 -31 36 -47z"/>
<path d="M1510 693 c-104 -50 -116 -53 -125 -38 -23 40 -43 58 -57 53 -13 -6
-138 -211 -138 -228 0 -18 24 -21 146 -21 144 0 158 5 131 53 -20 35 -18 39
39 61 59 22 187 100 192 116 4 11 -217 -98 -242 -120 -5 -4 -12 -25 -15 -46
l-6 -38 -98 -3 c-78 -2 -98 0 -103 12 -6 15 82 176 96 176 4 0 19 -9 33 -20
14 -11 36 -20 48 -20 31 0 206 87 213 105 3 8 4 15 3 14 -1 0 -54 -26 -117
-56z"/>
<path d="M1754 713 l-31 -26 18 -43 c11 -23 22 -64 25 -91 4 -26 11 -54 17
-60 6 -9 39 -13 98 -13 77 0 90 2 99 19 15 28 13 176 -2 189 -7 5 -38 13 -68
17 -30 4 -70 13 -89 21 -18 8 -34 14 -35 13 0 0 -15 -12 -32 -26z m33 -7 c-4
-10 0 -12 14 -9 10 3 25 1 32 -5 6 -5 35 -12 62 -15 28 -3 51 -6 51 -6 6 -3
16 -53 18 -86 3 -59 -24 -83 -89 -78 -56 4 -85 25 -85 59 0 33 -23 118 -34
125 -4 4 0 12 10 18 25 14 27 14 21 -3z"/>
<path d="M123 436 c-17 -8 -36 -23 -42 -35 -39 -71 37 -160 113 -131 34 13 25
43 -10 34 -32 -8 -74 20 -74 50 0 34 33 60 69 53 21 -5 31 -2 35 10 8 20 6 22
-30 28 -16 3 -43 -1 -61 -9z"/>
<path d="M234 361 c1 -77 3 -91 18 -95 16 -4 18 5 18 90 0 85 -2 94 -19 94
-16 0 -18 -9 -17 -89z"/>
<path d="M697 442 c-3 -4 -8 -46 -12 -94 -7 -84 -6 -86 14 -81 18 4 21 13 21
55 0 59 13 56 29 -7 7 -28 17 -45 26 -45 9 0 19 17 26 45 16 63 29 66 29 6 0
-44 3 -51 20 -51 18 0 19 5 13 83 -3 45 -9 86 -14 91 -16 18 -37 -4 -55 -56
-14 -43 -19 -49 -25 -33 -5 11 -15 37 -23 58 -14 34 -38 48 -49 29z"/>
<path d="M2203 435 c-35 -25 -30 -62 12 -86 54 -32 39 -68 -15 -39 -15 8 -21
6 -30 -9 -9 -18 -6 -21 27 -30 51 -14 87 3 91 45 3 26 -2 33 -33 49 -44 24
-48 50 -6 42 21 -5 31 -2 35 10 8 20 6 22 -30 28 -18 4 -37 0 -51 -10z"/>
<path d="M2043 400 c3 -11 1 -20 -4 -20 -5 0 -9 -7 -9 -15 0 -8 5 -15 10 -15
6 0 10 -18 10 -39 0 -31 4 -41 21 -46 30 -10 50 12 27 29 -22 16 -24 56 -3 56
8 0 15 5 15 10 0 6 -7 13 -15 16 -8 4 -15 15 -15 25 0 13 -7 19 -21 19 -16 0
-20 -5 -16 -20z"/>
<path d="M2550 400 c0 -11 -4 -20 -10 -20 -5 0 -10 -7 -10 -15 0 -8 4 -15 9
-15 6 0 11 -16 13 -36 3 -43 30 -66 50 -46 11 11 10 15 -4 23 -22 12 -24 59
-3 59 8 0 15 7 15 15 0 8 -7 15 -16 15 -11 0 -14 6 -9 20 5 16 2 20 -14 20
-14 0 -21 -6 -21 -20z"/>
<path d="M307 369 c-27 -16 -23 -75 7 -95 18 -11 30 -13 42 -6 9 5 25 7 35 5
17 -5 19 1 19 49 l0 55 -43 0 c-24 1 -51 -3 -60 -8z m63 -34 c15 -18 5 -35
-20 -35 -23 0 -32 13 -24 34 8 20 28 21 44 1z"/>
<path d="M441 366 c-15 -17 -5 -44 20 -51 29 -9 23 -28 -6 -21 -30 8 -36 -19
-6 -29 54 -17 98 45 46 65 -30 11 -34 30 -5 23 14 -4 20 0 20 11 0 20 -52 22
-69 2z"/>
<path d="M542 368 c-19 -19 -14 -37 13 -50 14 -6 25 -15 25 -21 0 -5 -11 -6
-25 -3 -30 8 -36 -19 -6 -29 54 -17 99 45 46 65 -30 11 -33 27 -5 26 10 -1 20
4 22 9 4 15 -55 18 -70 3z"/>
<path d="M895 363 c-33 -33 3 -114 43 -97 9 3 28 6 42 5 24 -1 25 2 25 53 l0
54 -48 0 c-29 0 -54 -6 -62 -15z m71 -28 c8 -20 -13 -45 -32 -38 -14 5 -19 34
-7 46 11 12 33 7 39 -8z"/>
<path d="M1030 323 c0 -29 5 -53 10 -53 6 0 13 -1 17 -2 4 -2 7 15 7 37 1 33
4 40 21 40 16 0 21 -8 23 -41 2 -34 6 -41 20 -37 14 3 17 13 14 46 -6 56 -15
65 -67 65 l-45 -1 0 -54z"/>
<path d="M1175 363 c-8 -8 -15 -28 -15 -43 0 -36 39 -67 66 -52 9 5 25 7 35 5
17 -5 19 1 19 49 l0 55 -45 1 c-28 0 -51 -6 -60 -15z m65 -28 c15 -18 5 -35
-20 -35 -10 0 -22 5 -25 10 -7 11 12 40 25 40 4 0 13 -7 20 -15z"/>
<path d="M1315 360 c-38 -42 10 -114 58 -89 16 9 18 8 15 -8 -2 -13 -13 -18
-38 -19 -51 -1 -54 -2 -40 -19 15 -18 84 -20 98 -2 5 6 12 44 14 83 l4 72 -48
0 c-33 0 -52 -6 -63 -18z m71 -25 c8 -20 -13 -45 -32 -38 -14 5 -19 34 -7 46
11 12 33 7 39 -8z"/>
<path d="M1455 356 c-35 -53 10 -109 68 -87 35 14 36 35 1 27 -16 -4 -32 -2
-42 6 -13 11 -9 14 31 18 46 5 46 5 34 30 -18 37 -70 40 -92 6z"/>
<path d="M1570 320 c0 -54 2 -58 21 -53 17 5 20 12 17 42 -2 30 0 36 17 36 17
0 20 -6 18 -36 -2 -29 2 -38 17 -42 16 -4 19 1 22 36 2 30 8 43 21 45 14 3 17
-4 17 -41 0 -40 2 -45 20 -40 15 4 20 14 20 42 0 21 -6 46 -14 57 -13 17 -18
18 -45 7 -17 -6 -33 -8 -36 -3 -3 5 -25 8 -50 8 l-45 0 0 -58z"/>
<path d="M1784 355 c-34 -51 13 -107 71 -85 35 13 32 33 -3 25 -20 -4 -33 -1
-42 10 -11 13 -7 15 28 15 48 0 57 9 36 38 -21 31 -69 29 -90 -3z"/>
<path d="M1900 320 c0 -53 2 -58 19 -53 14 4 21 15 23 41 2 26 8 38 21 40 14
3 17 -4 17 -41 0 -40 2 -45 20 -40 16 4 20 14 20 43 0 51 -19 68 -75 68 l-45
0 0 -58z"/>
<path d="M2319 332 c27 -47 27 -47 9 -77 -23 -38 -23 -45 2 -45 15 0 30 20 60
80 22 44 40 82 40 85 0 3 -9 5 -19 5 -12 0 -23 -11 -31 -32 l-12 -33 -16 33
c-11 22 -23 32 -39 32 l-22 0 28 -48z"/>
<path d="M2452 368 c-19 -19 -14 -37 13 -50 33 -15 32 -30 -1 -26 -36 4 -42
-18 -8 -26 27 -7 74 15 74 34 0 6 -15 19 -32 30 -32 19 -31 24 5 21 9 -1 17 4
17 13 0 19 -50 22 -68 4z"/>
<path d="M2630 360 c-26 -26 -25 -46 5 -75 27 -28 37 -30 66 -15 29 16 23 30
-12 28 -19 -2 -34 2 -36 10 -3 8 8 12 36 12 45 0 53 16 23 43 -25 23 -58 21
-82 -3z"/>
<path d="M2745 324 c0 -41 4 -54 17 -57 14 -4 18 3 20 36 2 30 8 43 21 45 14
3 17 -4 17 -41 0 -40 2 -45 20 -40 17 5 19 11 14 39 -5 26 -2 35 10 40 23 9
30 -1 31 -43 0 -27 5 -37 18 -39 16 -2 18 4 15 48 -3 59 -25 81 -58 61 -10 -7
-21 -9 -24 -4 -3 5 -27 9 -53 9 l-48 0 0 -54z"/>
</g>
</svg>
